<svg xmlns="http://www.w3.org/2000/svg" width="1856" height="1044" viewBox="0 0 1856 1044"><defs><style>.cls-1{fill:#fff}</style></defs><g id="Layer_1" data-name="Layer 1"><rect width="928" height="1044" class="cls-1"/><rect width="928" height="1044" x="928"/></g><g id="Layer_2" data-name="Layer 2"><g><g><g><g><circle cx="464.101" cy="358.145" r="22.504"/><path d="M464,296.2594c-40.4724,0-75.195,25.52-90.015,61.8852C388.805,394.51,423.5276,420.03,464,420.03s75.195-25.52,90.015-61.8853C539.195,321.78,504.4724,296.2594,464,296.2594Zm0,112.5187a50.6335,50.6335,0,1,1,50.6334-50.6335A50.6334,50.6334,0,0,1,464,408.7781Z"/></g><path d="M464,240c-36.0076,0-67.45,20.3532-84.389,50.6334v16.8778a110.1076,110.1076,0,0,1,168.778,0V290.6334C531.4505,260.3532,500.0076,240,464,240Z"/></g><g><polygon points="464 804 468.051 792.399 459.986 792.399 464 804"/><polygon points="456.283 781.852 471.753 781.852 475.826 770.251 452.21 770.251 456.283 781.852"/><polygon points="448.508 759.704 479.529 759.704 483.602 748.103 444.435 748.103 448.508 759.704"/><polygon points="440.733 737.557 487.304 737.557 491.377 725.955 436.66 725.955 440.733 737.557"/><polygon points="394.411 693.261 457.09 693.261 453.055 681.66 394.411 681.66 394.411 693.261"/><polygon points="478.648 671.113 556.828 671.113 556.828 659.512 482.683 659.512 478.648 671.113"/><polygon points="490.384 637.364 486.351 648.966 556.828 648.966 556.828 637.364 490.384 637.364"/><rect width="58.006" height="11.601" x="371.208" y="792.399"/><rect width="58.006" height="11.601" x="371.208" y="770.251"/><rect width="34.804" height="11.601" x="394.411" y="748.103"/><rect width="34.804" height="11.601" x="394.411" y="725.955"/><polygon points="533.626 681.66 474.981 681.66 470.947 693.261 533.626 693.261 533.626 681.66"/><polygon points="498.822 715.409 533.626 715.409 533.626 703.808 498.822 703.808 498.822 703.808 467.279 703.808 464.018 713.185 460.757 703.808 429.215 703.808 394.411 703.808 394.411 715.409 429.215 715.409 429.215 704.748 432.957 715.409 495.079 715.409 498.822 704.749 498.822 715.409"/><rect width="34.804" height="11.601" x="498.822" y="725.955"/><rect width="34.804" height="11.601" x="498.822" y="748.103"/><rect width="58.006" height="11.601" x="498.822" y="770.251"/><rect width="58.006" height="11.601" x="498.822" y="792.399"/><polygon points="449.388 671.113 445.354 659.512 371.208 659.512 371.209 671.113 449.388 671.113"/><polygon points="441.686 648.966 437.652 637.364 371.208 637.364 371.209 648.966 441.686 648.966"/></g></g><g><g><g><circle cx="442.872" cy="460.786" r="16.847"/><circle cx="485.128" cy="460.786" r="16.847"/></g><g><path d="M370.1426,525.5238,427.4314,500.2l-19.3166,61.3364c-3.665,10.9267-12.9033,21.6461-28.5038,21.6461a29.5939,29.5939,0,0,1-29.5362-29.4963C350.0748,539.9281,358.5337,530.7311,370.1426,525.5238Z"/><path d="M557.8574,525.4609l-57.2888-25.3243,19.3166,61.3364c3.665,10.9267,12.9514,21.6441,28.6018,21.6441.0107,0,.0205.002.0312.002a29.4834,29.4834,0,0,0,29.407-29.4963C577.9252,539.8652,569.4663,530.6682,557.8574,525.4609Z"/></g></g><g><path d="M497.13,505.825a36.5009,36.5009,0,0,0-66.1826,0Z"/><rect width="73.135" height="19.691" x="427.431" y="522.703"/><rect width="73.135" height="19.691" x="427.431" y="559.271"/><path d="M430.9475,595.84A36.5,36.5,0,0,0,497.13,595.84Z"/></g></g></g><g><g><g><circle cx="1392.101" cy="358.848" r="22.504" class="cls-1"/><path d="M1392.1015,296.9626c-40.4724,0-75.195,25.52-90.015,61.8853,14.82,36.3651,49.5426,61.8853,90.015,61.8853s75.195-25.52,90.0149-61.8853C1467.2965,322.4827,1432.5739,296.9626,1392.1015,296.9626Zm0,112.5187a50.6334,50.6334,0,1,1,50.6334-50.6334A50.6333,50.6333,0,0,1,1392.1015,409.4813Z" class="cls-1"/></g><path d="M1392.1015,240.7032c-36.0076,0-67.45,20.3532-84.389,50.6335v16.8778a110.1074,110.1074,0,0,1,168.778,0V291.3367C1459.552,261.0564,1428.1091,240.7032,1392.1015,240.7032Z" class="cls-1"/></g><g><g><g><circle cx="1370.871" cy="461.49" r="16.847" class="cls-1"/><circle cx="1413.129" cy="461.49" r="16.847" class="cls-1"/></g><g><path d="M1298.1426,526.1641l57.2888-25.3243-19.3166,61.3365c-3.665,10.9266-12.9033,21.6461-28.5038,21.6461a29.594,29.594,0,0,1-29.5362-29.4963C1278.0748,540.5684,1286.5337,531.3714,1298.1426,526.1641Z" class="cls-1"/><path d="M1485.8574,526.1641,1428.5686,500.84l19.3166,61.3365c3.665,10.9266,12.9514,21.6441,28.6018,21.6441.0107,0,.02.002.0312.002a29.4835,29.4835,0,0,0,29.407-29.4963C1505.9252,540.5684,1497.4663,531.3714,1485.8574,526.1641Z" class="cls-1"/></g></g><g><path d="M1425.13,506.5282a36.5005,36.5005,0,0,0-66.1826,0Z" class="cls-1"/><rect width="73.135" height="19.691" x="1355.431" y="523.406" class="cls-1"/><rect width="73.135" height="19.691" x="1355.431" y="559.975" class="cls-1"/><path d="M1358.9475,596.5436a36.5,36.5,0,0,0,66.1826,0Z" class="cls-1"/></g></g><g><rect width="58.003" height="10.546" x="1299.217" y="792.751" class="cls-1"/><rect width="58.003" height="10.546" x="1299.217" y="770.604" class="cls-1"/><rect width="34.802" height="10.546" x="1322.418" y="748.457" class="cls-1"/><rect width="34.802" height="10.546" x="1322.418" y="726.311" class="cls-1"/><rect width="58.003" height="10.546" x="1426.825" y="792.751" class="cls-1"/><rect width="58.003" height="10.546" x="1426.825" y="770.604" class="cls-1"/><rect width="34.802" height="10.546" x="1426.825" y="748.457" class="cls-1"/><rect width="34.802" height="10.546" x="1426.825" y="726.311" class="cls-1"/><polygon points="1426.825 714.71 1461.627 714.71 1461.627 704.164 1426.825 704.164 1396.393 704.164 1392.734 714.71 1423.279 714.71 1426.825 704.666 1426.825 714.71" class="cls-1"/><polygon points="1357.22 714.71 1322.418 714.71 1322.418 704.164 1357.22 704.164 1387.652 704.164 1391.311 714.71 1360.766 714.71 1357.22 704.666 1357.22 714.71" class="cls-1"/><polygon points="1461.627 682.017 1404.076 682.017 1400.417 692.563 1461.627 692.563 1461.627 682.017" class="cls-1"/><polygon points="1419.442 637.724 1415.784 648.27 1484.828 648.27 1484.828 637.724 1419.442 637.724" class="cls-1"/><polygon points="1392 803.297 1395.725 792.751 1388.319 792.751 1392 803.297" class="cls-1"/><polygon points="1384.224 781.15 1399.821 781.15 1403.545 770.604 1380.5 770.604 1384.224 781.15" class="cls-1"/><polygon points="1376.404 759.003 1407.64 759.003 1411.364 748.457 1372.681 748.457 1376.404 759.003" class="cls-1"/><polygon points="1368.585 736.857 1415.46 736.857 1419.183 726.311 1364.862 726.311 1368.585 736.857" class="cls-1"/><polygon points="1322.418 692.563 1383.627 692.563 1379.969 682.017 1322.418 682.017 1322.418 692.563" class="cls-1"/><polygon points="1408.101 670.416 1484.828 670.416 1484.828 659.87 1411.759 659.87 1408.101 670.416" class="cls-1"/><polygon points="1372.286 659.87 1299.217 659.87 1299.217 670.416 1375.944 670.416 1372.286 659.87" class="cls-1"/><polygon points="1364.603 637.724 1299.217 637.724 1299.217 648.27 1368.261 648.27 1364.603 637.724" class="cls-1"/></g></g></g></svg>