<?xml version="1.0" encoding="utf-8"?>
<!-- Generator: Adobe Illustrator 24.1.2, SVG Export Plug-In . SVG Version: 6.00 Build 0)  -->
<svg version="1.1" xmlns="http://www.w3.org/2000/svg" xmlns:xlink="http://www.w3.org/1999/xlink" x="0px" y="0px" width="1216px"
	 height="684px" viewBox="0 0 1216 684" style="enable-background:new 0 0 1216 684;" xml:space="preserve">
<style type="text/css">
	.st0{fill:#FFFFFF;}
	.st1{fill:#A6C8FF;}
	.st2{fill:#BFBFBF;}
	.st3{fill:#4589FF;}
	.st4{fill:none;stroke:#A6C8FF;stroke-width:2;stroke-miterlimit:10;}
	.st5{fill:#A6C8FF;stroke:#A6C8FF;stroke-width:2;stroke-miterlimit:10;}
	.st6{fill:none;stroke:#A6C8FF;stroke-miterlimit:10;}
</style>
<g id="Layer_1">
</g>
<g id="Layer_2">
	<rect class="st0" width="1216" height="684"/>
	<g>
		<polygon points="214.9,373.5 214.9,365.4 226.3,365.4 226.3,300.2 214.9,300.2 214.9,292 247.6,292 247.6,300.2 236.2,300.2 
			236.2,365.4 247.6,365.4 247.6,373.5 		"/>
		<path d="M484.8,357.8c10.5,0,17.1-5.7,17.1-18.7v-12.6c0-13-6.5-18.7-17.1-18.7h-13v50H484.8z M454.1,292h30.7
			c21.6,0,35.9,13.7,35.9,40.8c0,27.1-14.3,40.8-35.9,40.8h-30.7V292z"/>
		<path d="M548.6,336.2v0.9h21.5V336c0-7.5-3.4-12.5-10.3-12.5C552.9,323.5,548.6,328.6,548.6,336.2 M530.7,342.8
			c0-19.4,10.3-32,28.7-32c20.3,0,28.5,14.7,28.5,31.3v5.1h-39.4v0.9c0,8.1,4.3,13.2,13.5,13.2c7.2,0,11.2-3.4,15.1-7.4l8.6,10.7
			c-5.5,6.3-14.5,10.2-25.7,10.2C541.3,374.9,530.7,362.4,530.7,342.8"/>
		<polygon points="612.1,373.5 592,312.2 609.1,312.2 616.7,337 622.4,359.2 623.3,359.2 629.1,337 636.4,312.2 652.8,312.2 
			632.7,373.5 		"/>
		<path d="M675,336.2v0.9h21.5V336c0-7.5-3.4-12.5-10.3-12.5C679.3,323.5,675,328.6,675,336.2 M657.1,342.8c0-19.4,10.3-32,28.7-32
			c20.3,0,28.5,14.7,28.5,31.3v5.1H675v0.9c0,8.1,4.3,13.2,13.5,13.2c7.2,0,11.2-3.4,15.1-7.4l8.6,10.7
			c-5.5,6.3-14.5,10.2-25.7,10.2C667.7,374.9,657.1,362.4,657.1,342.8"/>
		<path d="M743.8,373.5c-11.8,0-17.2-6-17.2-16.8v-69.6h17.3v73h7.7v13.4H743.8z"/>
		<path d="M797.6,349.1v-12.5c0-7.7-4-12.1-10.7-12.1c-6.8,0-10.7,4.4-10.7,12.1v12.5c0,7.7,4,12.1,10.7,12.1
			C793.6,361.3,797.6,356.8,797.6,349.1 M758.1,342.8c0-19.7,10.7-32,28.7-32c18,0,28.7,12.3,28.7,32c0,19.7-10.7,32.1-28.7,32.1
			C768.9,374.9,758.1,362.6,758.1,342.8"/>
		<path d="M867.8,348.2v-10.6c0-7.7-4.8-12.7-11.3-12.7s-11.3,3.4-11.3,9v18.1c0,5.6,4.8,9,11.3,9S867.8,355.9,867.8,348.2
			 M827.9,312.2h17.3v10.3h0.6c1.7-6.8,8.5-11.7,16.5-11.7c15.5,0,23.6,11.2,23.6,32c0,20.8-8.1,32.1-23.6,32.1
			c-7.9,0-14.7-5-16.5-11.7h-0.6v33.6h-17.3V312.2z"/>
		<path d="M912.9,336.2v0.9h21.5V336c0-7.5-3.4-12.5-10.3-12.5C917.2,323.5,912.9,328.6,912.9,336.2 M895,342.8
			c0-19.4,10.3-32,28.7-32c20.3,0,28.5,14.7,28.5,31.3v5.1h-39.4v0.9c0,8.1,4.3,13.2,13.5,13.2c7.2,0,11.2-3.4,15.1-7.4l8.6,10.7
			c-5.5,6.3-14.5,10.2-25.7,10.2C905.7,374.9,895,362.4,895,342.8"/>
		<path d="M964.5,373.5v-61.3h17.3v13.3h0.6c1.4-6.8,6.1-13.3,15.7-13.3h3v16.1h-4.3c-10,0-15,2.2-15,9.3v35.9H964.5z"/>
		<path d="M275.1,364.9h24.2c8.4,0,13.6-4.4,13.6-12.6v-4c0-8.2-5.1-12.6-13.6-12.6h-24.2V364.9z M275.1,327.3h22.5
			c7.7,0,12.4-4.1,12.4-11.3v-4c0-7.2-4.7-11.3-12.4-11.3h-22.5V327.3z M265.3,292h33.5c13.4,0,21.7,8.3,21.7,21
			c0,12.1-7.8,16.5-13.2,17.3v0.7c5.8,0.4,16,5.4,16,18.9c0,13.4-9,23.6-21,23.6h-37V292z"/>
		<polygon points="342,292 355.1,292 378.5,335.9 379.1,335.9 402.5,292 415.2,292 415.2,373.5 405.6,373.5 405.6,304.9 405,304.9 
			398.1,318.5 378.6,354 359.1,318.5 352.2,304.9 351.6,304.9 351.6,373.5 342,373.5 		"/>
	</g>
</g>
</svg>
